<?xml version="1.0" encoding="UTF-8"?>
<svg width="151px" height="140px" viewBox="0 0 151 140" version="1.1" xmlns="http://www.w3.org/2000/svg" xmlns:xlink="http://www.w3.org/1999/xlink">
    <!-- Generator: Sketch 51.3 (57544) - http://www.bohemiancoding.com/sketch -->
    <title>cart</title>
    <desc>Created with Sketch.</desc>
    <defs></defs>
    <g id="Page-1" stroke="none" stroke-width="1" fill="none" fill-rule="evenodd">
        <g id="Cart---Confirm" transform="translate(-645.000000, -569.000000)" fill-rule="nonzero">
            <g id="cart" transform="translate(645.000000, 571.000000)">
                <path d="M151,98.8148148 L20.8275862,98.8148148 L20.8275862,31.4074074 L151,31.4074074 L151,98.8148148 Z M26.0344828,93.6296296 L145.793103,93.6296296 L145.793103,36.5925926 L26.0344828,36.5925926 L26.0344828,93.6296296 Z" id="Shape" fill="#BDC3C7"></path>
                <path d="M23.4310345,116.962963 C21.9913276,116.962963 20.8275862,115.804074 20.8275862,114.37037 L20.8275862,96.2222222 C20.8275862,94.7885185 21.9913276,93.6296296 23.4310345,93.6296296 C24.8707414,93.6296296 26.0344828,94.7885185 26.0344828,96.2222222 L26.0344828,114.37037 C26.0344828,115.804074 24.8707414,116.962963 23.4310345,116.962963 Z" id="Path" fill="#BDC3C7"></path>
                <ellipse id="Oval" fill="#556080" cx="49.4655172" cy="127.333333" rx="10.4137931" ry="10.3703704"></ellipse>
                <ellipse id="Oval" fill="#556080" cx="111.948276" cy="127.333333" rx="10.4137931" ry="10.3703704"></ellipse>
                <path d="M135.37931,116.962963 L23.4310345,116.962963 C21.9913276,116.962963 20.8275862,115.804074 20.8275862,114.37037 C20.8275862,112.936667 21.9913276,111.777778 23.4310345,111.777778 L135.37931,111.777778 C136.819017,111.777778 137.982759,112.936667 137.982759,114.37037 C137.982759,115.804074 136.819017,116.962963 135.37931,116.962963 Z" id="Path" fill="#BDC3C7"></path>
                <ellipse id="Oval" stroke="#24AE5F" stroke-width="3" fill="#FFFFFF" cx="85.9137931" cy="34" rx="33.8448276" ry="33.7037037"></ellipse>
                <path d="M83.3077414,49.5555556 C82.7193621,49.5555556 82.1309828,49.3585185 81.6415345,48.9566667 L66.0208448,35.9937037 C64.9169828,35.0759259 64.7685862,33.4425926 65.6876034,32.3407407 C66.6092241,31.2414815 68.2441897,31.0962963 69.3558621,32.0088889 L84.9765517,44.9718519 C86.0804138,45.8896296 86.2288103,47.522963 85.3097931,48.6248148 C84.7943103,49.2392593 84.054931,49.5555556 83.3077414,49.5555556 Z" id="Path" fill="#24AE5F"></path>
                <path d="M83.3103448,49.5555556 C82.695931,49.5555556 82.0763103,49.3403704 81.5816552,48.8996296 C80.506431,47.9507407 80.4101034,46.3096296 81.365569,45.2414815 L102.193155,21.9081481 C103.146017,20.8348148 104.791397,20.7388889 105.866621,21.692963 C106.941845,22.6418519 107.038172,24.282963 106.082707,25.3511111 L85.2551207,48.6844444 C84.7422414,49.2625926 84.0262931,49.5555556 83.3103448,49.5555556 Z" id="Path" fill="#24AE5F"></path>
                <path d="M23.4310345,13.2592593 L10.4137931,13.2592593 C8.97408621,13.2592593 7.81034483,12.1003704 7.81034483,10.6666667 C7.81034483,9.23296296 8.97408621,8.07407407 10.4137931,8.07407407 L23.4310345,8.07407407 C24.8707414,8.07407407 26.0344828,9.23296296 26.0344828,10.6666667 C26.0344828,12.1003704 24.8707414,13.2592593 23.4310345,13.2592593 Z" id="Path" fill="#BDC3C7"></path>
                <path d="M23.4310345,36.5925926 C21.9913276,36.5925926 20.8275862,35.4337037 20.8275862,34 L20.8275862,10.6666667 C20.8275862,9.23296296 21.9913276,8.07407407 23.4310345,8.07407407 C24.8707414,8.07407407 26.0344828,9.23296296 26.0344828,10.6666667 L26.0344828,34 C26.0344828,35.4337037 24.8707414,36.5925926 23.4310345,36.5925926 Z" id="Path" fill="#BDC3C7"></path>
                <ellipse id="Oval" fill="#D8625E" cx="7.81034483" cy="10.6666667" rx="7.81034483" ry="7.77777778"></ellipse>
            </g>
        </g>
    </g>
</svg>