<?xml version="1.0" encoding="UTF-8"?>
<svg width="30px" height="27px" viewBox="0 0 30 27" version="1.1" xmlns="http://www.w3.org/2000/svg" xmlns:xlink="http://www.w3.org/1999/xlink">
    <!-- Generator: Sketch 54.1 (76490) - https://sketchapp.com -->
    <title>Fill 1</title>
    <desc>Created with Sketch.</desc>
    <g id="09.ABOUT-ACONCEPT" stroke="none" stroke-width="1" fill="none" fill-rule="evenodd">
        <g id="About-AConcept" transform="translate(-931.000000, -3198.000000)" fill="#FFFFFF">
            <g id="Group" transform="translate(54.000000, 2709.000000)">
                <path d="M880.329333,489 L877.124,508.119628 L877,508.730756 L877.021667,508.730756 L889.649667,508.730756 L889.649667,513.4037 L888.082667,513.4037 L888.082667,516 L895.916333,516 L895.916333,513.4037 L894.349667,513.4037 L894.349667,508.730756 L906.978,508.730756 L907,508.730756 L906.875667,508.119628 L903.670333,489 L880.329333,489 Z M881.213667,490.038321 L884.427333,490.038321 L885.471667,490.038321 L902.785667,490.038321 L905.135333,504.057813 L878.864,504.057813 L881.213667,490.038321 Z M878.803667,505.096135 L905.195667,505.096135 L905.723,507.692104 L894.349667,507.692104 L889.649667,507.692104 L878.276333,507.692104 L878.803667,505.096135 Z M890.694,513.4037 L893.305333,513.4037 L893.305333,508.730756 L890.694,508.730756 L890.694,513.4037 Z M889.127333,514.442352 L889.649667,514.442352 L894.349667,514.442352 L894.872,514.442352 L894.872,514.961347 L889.127333,514.961347 L889.127333,514.442352 Z" id="Fill-1"></path>
            </g>
        </g>
    </g>
</svg>