<?xml version="1.0" encoding="UTF-8"?>
<svg width="23px" height="30px" viewBox="0 0 23 30" version="1.1" xmlns="http://www.w3.org/2000/svg" xmlns:xlink="http://www.w3.org/1999/xlink">
    <!-- Generator: Sketch 54.1 (76490) - https://sketchapp.com -->
    <title>Fill 1</title>
    <desc>Created with Sketch.</desc>
    <g id="Page-1" stroke="none" stroke-width="1" fill="none" fill-rule="evenodd">
        <g id="Resort-form-Copy" transform="translate(-181.000000, -102.000000)" fill="#B59035">
            <g id="Group" transform="translate(151.000000, 49.000000)">
                <path d="M41.0442934,69.7816645 C37.8810177,69.7816645 35.3072294,67.2078762 35.3072294,64.0446005 C35.3072294,60.8810177 37.8810177,58.3072294 41.0442934,58.3072294 C44.2075692,58.3072294 46.7813575,60.8810177 46.7813575,64.0446005 C46.7816645,67.2078762 44.2078762,69.7816645 41.0442934,69.7816645 M41.0442934,53 C34.954765,53 30,57.954765 30,64.0449075 C30,65.6334534 30.3251392,67.1501556 30.9658998,68.5532586 C33.7272802,74.5958122 39.0216145,80.975479 40.5788439,82.7863108 C40.6955133,82.9220157 40.865605,83 41.0446005,83 C41.2235959,83 41.3936876,82.9220157 41.510357,82.7863108 C43.0669723,80.975786 48.3613067,74.5964262 51.1236082,68.5532586 C51.7646758,67.1501556 52.0895079,65.6334534 52.0895079,64.0449075 C52.0888939,57.954765 47.1341289,53 41.0442934,53" id="Fill-1"></path>
            </g>
        </g>
    </g>
</svg>