<?xml version="1.0" encoding="UTF-8"?>
<svg width="13px" height="6px" viewBox="0 0 13 6" version="1.1" xmlns="http://www.w3.org/2000/svg" xmlns:xlink="http://www.w3.org/1999/xlink">
    <!-- Generator: Sketch 54.1 (76490) - https://sketchapp.com -->
    <title>Fill 1</title>
    <desc>Created with Sketch.</desc>
    <g id="Page-1" stroke="none" stroke-width="1" fill="none" fill-rule="evenodd">
        <g id="Homepage" transform="translate(-484.000000, -3915.000000)" fill="#FFFFFF">
            <g id="Group-17" transform="translate(-271.000000, 3462.000000)">
                <g id="Group-12" transform="translate(421.000000, 255.000000)">
                    <g id="Group-35">
                        <g id="Group-31" transform="translate(210.000000, 181.000000)">
                            <g id="Group-28">
                                <g id="Group-37" transform="translate(116.000000, 6.000000)">
                                    <path d="M20.9246913,13.6936777 L18.0358727,11.0605345 C17.9556101,10.9953443 17.8678642,10.9828016 17.7725557,11.0229329 C17.6773527,11.0631169 17.6295535,11.1357905 17.6295535,11.2411648 L17.6295535,12.9263617 L8.24073489,12.9263617 C8.17048541,12.9263617 8.1127786,12.948891 8.06769351,12.9940288 C8.02263477,13.0391403 8,13.0968471 8,13.1670438 L8,14.6114531 C8,14.6816236 8.02252937,14.7393304 8.06766716,14.7843891 C8.11285765,14.8295006 8.17056446,14.8520299 8.24070854,14.8520299 L17.6296062,14.8520299 L17.6296062,16.5372005 C17.6296062,16.6376472 17.6774844,16.7103209 17.7726348,16.7553269 C17.8680223,16.7956163 17.9557682,16.7803859 18.0360308,16.7103209 L20.9248494,14.0469277 C20.9749937,13.9968098 21,13.9367314 21,13.8664556 C21,13.8014235 20.9748356,13.7438221 20.9246913,13.6936777" id="Fill-1"></path>
                                </g>
                            </g>
                        </g>
                    </g>
                </g>
            </g>
        </g>
    </g>
</svg>