<?xml version="1.0" encoding="utf-8"?>
<!-- Generator: Adobe Illustrator 19.2.1, SVG Export Plug-In . SVG Version: 6.00 Build 0)  -->
<svg version="1.2" baseProfile="tiny" id="Layer_1" xmlns="http://www.w3.org/2000/svg" xmlns:xlink="http://www.w3.org/1999/xlink"
	 x="0px" y="0px" viewBox="0 0 512 512" xml:space="preserve">
<g>
	<path fill="none" d="M30,482h148.1V161.8H30V482z M120.5,206.9c0-8.3,6.7-15,15-15c8.3,0,15,6.7,15,15v20c0,8.3-6.7,15-15,15
		c-8.3,0-15-6.7-15-15V206.9z M120.5,286.9c0-8.3,6.7-15,15-15c8.3,0,15,6.7,15,15v20c0,8.3-6.7,15-15,15c-8.3,0-15-6.7-15-15V286.9
		z M120.5,367c0-8.3,6.7-15,15-15c8.3,0,15,6.7,15,15v20c0,8.3-6.7,15-15,15c-8.3,0-15-6.7-15-15V367z M59,206.9c0-8.3,6.7-15,15-15
		c8.3,0,15,6.7,15,15v20c0,8.3-6.7,15-15,15c-8.3,0-15-6.7-15-15V206.9z M59,286.9c0-8.3,6.7-15,15-15c8.3,0,15,6.7,15,15v20
		c0,8.3-6.7,15-15,15c-8.3,0-15-6.7-15-15V286.9z M59,367c0-8.3,6.7-15,15-15c8.3,0,15,6.7,15,15v20c0,8.3-6.7,15-15,15
		c-8.3,0-15-6.7-15-15V367z"/>
	<rect x="30" y="75.1" fill="none" width="148.1" height="56.7"/>
	<rect x="324.4" y="451.8" fill="none" width="41.9" height="30.2"/>
	<path fill="none" d="M345.4,396.3h-0.1c-11.5,0-20.9,9.4-20.9,20.9v4.7h41.9v-4.7C366.3,405.6,356.9,396.3,345.4,396.3z"/>
	<path fill="none" d="M208.1,482h86.3v-64.9c0-28,22.8-50.9,50.9-50.9h0.2c28,0,50.9,22.8,50.9,50.9V482H482V30H208.1V482z
		 M421.6,126.8c0-8.3,6.7-15,15-15c8.3,0,15,6.7,15,15v20c0,8.3-6.7,15-15,15c-8.3,0-15-6.7-15-15V126.8z M421.6,206.9
		c0-8.3,6.7-15,15-15c8.3,0,15,6.7,15,15v20c0,8.3-6.7,15-15,15c-8.3,0-15-6.7-15-15V206.9z M421.6,286.9c0-8.3,6.7-15,15-15
		c8.3,0,15,6.7,15,15v20c0,8.3-6.7,15-15,15c-8.3,0-15-6.7-15-15V286.9z M360.1,126.8c0-8.3,6.7-15,15-15c8.3,0,15,6.7,15,15v20
		c0,8.3-6.7,15-15,15c-8.3,0-15-6.7-15-15V126.8z M360.1,206.9c0-8.3,6.7-15,15-15c8.3,0,15,6.7,15,15v20c0,8.3-6.7,15-15,15
		c-8.3,0-15-6.7-15-15V206.9z M360.1,286.9c0-8.3,6.7-15,15-15c8.3,0,15,6.7,15,15v20c0,8.3-6.7,15-15,15c-8.3,0-15-6.7-15-15V286.9
		z M301.6,126.8c0-8.3,6.7-15,15-15c8.3,0,15,6.7,15,15v20c0,8.3-6.7,15-15,15c-8.3,0-15-6.7-15-15V126.8z M301.6,206.9
		c0-8.3,6.7-15,15-15c8.3,0,15,6.7,15,15v20c0,8.3-6.7,15-15,15c-8.3,0-15-6.7-15-15V206.9z M301.6,286.9c0-8.3,6.7-15,15-15
		c8.3,0,15,6.7,15,15v20c0,8.3-6.7,15-15,15c-8.3,0-15-6.7-15-15V286.9z M243.1,126.8c0-8.3,6.7-15,15-15c8.3,0,15,6.7,15,15v20
		c0,8.3-6.7,15-15,15c-8.3,0-15-6.7-15-15V126.8z M240.1,206.9c0-8.3,6.7-15,15-15c8.3,0,15,6.7,15,15v20c0,8.3-6.7,15-15,15
		c-8.3,0-15-6.7-15-15V206.9z M240.1,286.9c0-8.3,6.7-15,15-15c8.3,0,15,6.7,15,15v20c0,8.3-6.7,15-15,15c-8.3,0-15-6.7-15-15V286.9
		z"/>
	<path fill="#B59035" d="M497,0H193.1c-8.3,0-15,6.7-15,15v30.1H15c-8.3,0-15,6.7-15,15V497c0,8.3,6.7,15,15,15h482
		c8.3,0,15-6.7,15-15V15C512,6.7,505.3,0,497,0z M178.1,482H30V161.8h148.1V482z M178.1,131.8H30V75.1h148.1V131.8z M366.3,482
		h-41.9v-30.2h41.9V482z M366.3,421.8h-41.9v-4.7c0-11.5,9.4-20.9,20.9-20.9h0.1c11.5,0,20.9,9.4,20.9,20.9V421.8z M482,482h-85.7
		v-64.9c0-28-22.8-50.9-50.9-50.9h-0.2c-28,0-50.9,22.8-50.9,50.9V482h-86.3V30H482V482z"/>
	<path fill="#B59035" d="M135.5,241.9c8.3,0,15-6.7,15-15v-20c0-8.3-6.7-15-15-15c-8.3,0-15,6.7-15,15v20
		C120.5,235.2,127.2,241.9,135.5,241.9z"/>
	<path fill="#B59035" d="M74,241.9c8.3,0,15-6.7,15-15v-20c0-8.3-6.7-15-15-15c-8.3,0-15,6.7-15,15v20C59,235.2,65.7,241.9,74,241.9
		z"/>
	<path fill="#B59035" d="M135.5,321.9c8.3,0,15-6.7,15-15v-20c0-8.3-6.7-15-15-15c-8.3,0-15,6.7-15,15v20
		C120.5,315.2,127.2,321.9,135.5,321.9z"/>
	<path fill="#B59035" d="M74,321.9c8.3,0,15-6.7,15-15v-20c0-8.3-6.7-15-15-15c-8.3,0-15,6.7-15,15v20C59,315.2,65.7,321.9,74,321.9
		z"/>
	<path fill="#B59035" d="M135.5,402c8.3,0,15-6.7,15-15v-20c0-8.3-6.7-15-15-15c-8.3,0-15,6.7-15,15v20
		C120.5,395.3,127.2,402,135.5,402z"/>
	<path fill="#B59035" d="M74,402c8.3,0,15-6.7,15-15v-20c0-8.3-6.7-15-15-15c-8.3,0-15,6.7-15,15v20C59,395.3,65.7,402,74,402z"/>
	<path fill="#B59035" d="M316.6,241.9c8.3,0,15-6.7,15-15v-20c0-8.3-6.7-15-15-15c-8.3,0-15,6.7-15,15v20
		C301.6,235.2,308.3,241.9,316.6,241.9z"/>
	<path fill="#B59035" d="M255.1,241.9c8.3,0,15-6.7,15-15v-20c0-8.3-6.7-15-15-15c-8.3,0-15,6.7-15,15v20
		C240.1,235.2,246.8,241.9,255.1,241.9z"/>
	<path fill="#B59035" d="M316.6,321.9c8.3,0,15-6.7,15-15v-20c0-8.3-6.7-15-15-15c-8.3,0-15,6.7-15,15v20
		C301.6,315.2,308.3,321.9,316.6,321.9z"/>
	<path fill="#B59035" d="M255.1,321.9c8.3,0,15-6.7,15-15v-20c0-8.3-6.7-15-15-15c-8.3,0-15,6.7-15,15v20
		C240.1,315.2,246.8,321.9,255.1,321.9z"/>
	<path fill="#B59035" d="M436.6,241.9c8.3,0,15-6.7,15-15v-20c0-8.3-6.7-15-15-15c-8.3,0-15,6.7-15,15v20
		C421.6,235.2,428.3,241.9,436.6,241.9z"/>
	<path fill="#B59035" d="M375.1,241.9c8.3,0,15-6.7,15-15v-20c0-8.3-6.7-15-15-15c-8.3,0-15,6.7-15,15v20
		C360.1,235.2,366.8,241.9,375.1,241.9z"/>
	<path fill="#B59035" d="M436.6,321.9c8.3,0,15-6.7,15-15v-20c0-8.3-6.7-15-15-15c-8.3,0-15,6.7-15,15v20
		C421.6,315.2,428.3,321.9,436.6,321.9z"/>
	<path fill="#B59035" d="M375.1,321.9c8.3,0,15-6.7,15-15v-20c0-8.3-6.7-15-15-15c-8.3,0-15,6.7-15,15v20
		C360.1,315.2,366.8,321.9,375.1,321.9z"/>
	<path fill="#B59035" d="M436.6,161.8c8.3,0,15-6.7,15-15v-20c0-8.3-6.7-15-15-15c-8.3,0-15,6.7-15,15v20
		C421.6,155.1,428.3,161.8,436.6,161.8z"/>
	<path fill="#B59035" d="M375.1,161.8c8.3,0,15-6.7,15-15v-20c0-8.3-6.7-15-15-15c-8.3,0-15,6.7-15,15v20
		C360.1,155.1,366.8,161.8,375.1,161.8z"/>
	<path fill="#B59035" d="M316.6,161.8c8.3,0,15-6.7,15-15v-20c0-8.3-6.7-15-15-15c-8.3,0-15,6.7-15,15v20
		C301.6,155.1,308.3,161.8,316.6,161.8z"/>
	<path fill="#B59035" d="M258.1,161.8c8.3,0,15-6.7,15-15v-20c0-8.3-6.7-15-15-15c-8.3,0-15,6.7-15,15v20
		C243.1,155.1,249.8,161.8,258.1,161.8z"/>
</g>
</svg>
