<?xml version="1.0" encoding="utf-8"?>
<!-- Generator: Adobe Illustrator 19.2.1, SVG Export Plug-In . SVG Version: 6.00 Build 0)  -->
<svg version="1.2" baseProfile="tiny" id="Layer_1" xmlns="http://www.w3.org/2000/svg" xmlns:xlink="http://www.w3.org/1999/xlink"
	 x="0px" y="0px" viewBox="0 0 447.6 370.9" xml:space="preserve">
<g>
	<path fill="none" d="M103.1,213.6H51.3c-9.3,0-16.9,7.6-16.9,16.9c0,9.3,7.6,16.9,16.9,16.9h51.8c9.3,0,16.9-7.6,16.9-16.9
		C120,221.2,112.5,213.6,103.1,213.6z"/>
	<path fill="none" d="M286.3,222.6H165.7c-5.9,0-10.7,4.8-10.7,10.7c0,5.9,4.8,10.7,10.7,10.7h120.6c5.9,0,10.7-4.8,10.7-10.7
		C297,227.4,292.2,222.6,286.3,222.6z"/>
	<path fill="none" d="M343.2,213.6c-9.3,0-16.9,7.6-16.9,16.9c0,9.3,7.6,16.9,16.9,16.9h51.8c9.3,0,16.9-7.6,16.9-16.9
		c0-9.3-7.6-16.9-16.9-16.9H343.2z"/>
	<path fill="none" d="M78.8,87.5l-29.3,56.3c8.5-2.8,17.7-4.4,27.4-4.4h293.9c10.7,0,20.9,1.9,30.2,5.3l-28.4-57.5
		c-14.1-42-28.1-56.8-53.1-56.8H131.9C106.7,30.4,94.2,43.8,78.8,87.5z"/>
	<path fill="#B59035" d="M49.9,77.8L9.2,174.4C3.3,183.8,0,194.6,0,206v30c0,4.6,0.5,9.2,1.6,13.5C0.6,252.2,0,255,0,258v89.2
		c0,13.1,10.6,23.7,23.7,23.7h49.1c13.1,0,23.7-10.6,23.7-23.7v-44.6H354v44.6c0,13.1,10.6,23.7,23.7,23.7H424
		c13.1,0,23.7-10.6,23.7-23.7V258c0-3-0.6-5.8-1.6-8.5c1-4.4,1.6-8.9,1.6-13.5v-30h0v0c0-8.8-2-17.2-5.6-24.9
		c-0.4-2-0.8-3.9-1.3-5.9l-38.9-96.4l-0.3-0.9c-13.6-40.5-33-78-82-78H131.9C81.6,0,63.8,38.4,49.9,77.8z M103.1,247.4H51.3
		c-9.3,0-16.9-7.6-16.9-16.9c0-9.3,7.6-16.9,16.9-16.9h51.8c9.3,0,16.9,7.6,16.9,16.9C120,239.8,112.5,247.4,103.1,247.4z
		 M286.3,244H165.7c-5.9,0-10.7-4.8-10.7-10.7c0-5.9,4.8-10.7,10.7-10.7h120.6c5.9,0,10.7,4.8,10.7,10.7
		C297,239.2,292.2,244,286.3,244z M412,230.5c0,9.3-7.6,16.9-16.9,16.9h-51.8c-9.3,0-16.9-7.6-16.9-16.9c0-9.3,7.6-16.9,16.9-16.9
		h51.8C404.4,213.6,412,221.2,412,230.5z M372.6,87.3l28.4,57.5c-9.3-3.4-19.5-5.3-30.2-5.3H76.8c-9.6,0-18.9,1.6-27.4,4.4
		l29.3-56.3c15.5-43.7,27.9-57,53.1-57h187.7C344.5,30.4,358.4,45.3,372.6,87.3z"/>
</g>
</svg>
