<?xml version="1.0" encoding="UTF-8"?>
<svg width="17px" height="16px" viewBox="0 0 17 16" version="1.1" xmlns="http://www.w3.org/2000/svg" xmlns:xlink="http://www.w3.org/1999/xlink">
    <!-- Generator: Sketch 54.1 (76490) - https://sketchapp.com -->
    <title>Group 8</title>
    <desc>Created with Sketch.</desc>
    <defs>
        <polygon id="path-1" points="1.64203727e-06 0.00751648352 16.7999899 0.00751648352 16.7999899 11.9872418 1.64203727e-06 11.9872418"></polygon>
    </defs>
    <g id="02.PRODUCT" stroke="none" stroke-width="1" fill="none" fill-rule="evenodd">
        <g id="Product-detail-1" transform="translate(-981.000000, -609.000000)">
            <g id="Group-19" transform="translate(0.000000, -30.000000)">
                <g id="Group-3" transform="translate(961.000000, 630.000000)">
                    <g id="Group-8" transform="translate(20.000000, 9.000000)">
                        <path d="M7.2,15.1065669 C6.81034889,15.1065669 6.49336206,14.7895445 6.49336206,14.3999289 C6.49336206,14.0102778 6.81038442,13.693291 7.2,13.693291 C7.58961558,13.693291 7.90663794,14.0103134 7.90663794,14.3999289 C7.90663794,14.7896156 7.58961558,15.1065669 7.2,15.1065669 M7.2,12.8 C6.31775967,12.8 5.6,13.5177597 5.6,14.4 C5.6,15.2822403 6.31775967,16 7.2,16 C8.08224033,16 8.8,15.2822403 8.8,14.4 C8.79996447,13.5177597 8.0822048,12.8 7.2,12.8" id="Fill-1" fill="#FFFFFF"></path>
                        <path d="M12,15.1065669 C11.6103489,15.1065669 11.2933621,14.7895445 11.2933621,14.3999289 C11.2933621,14.0102778 11.6103844,13.693291 12,13.693291 C12.3896511,13.693291 12.7066379,14.0103134 12.7066379,14.3999289 C12.7066379,14.7896156 12.3896156,15.1065669 12,15.1065669 M12,12.8 C11.1177597,12.8 10.4,13.5177597 10.4,14.4 C10.4,15.2822403 11.1177597,16 12,16 C12.8822403,16 13.6,15.2822403 13.6,14.4 C13.5999645,13.5177597 12.8822048,12.8 12,12.8" id="Fill-3" fill="#FFFFFF"></path>
                        <g id="Group-7">
                            <mask id="mask-2" fill="white">
                                <use xlink:href="#path-1"></use>
                            </mask>
                            <g id="Clip-6"></g>
                            <path d="M14.8210945,9.14554945 L4.45001484,9.14554945 L3.29629453,3.51893407 L15.9748148,3.51893407 L14.8210945,9.14554945 Z M16.6143305,2.99531868 C16.4570273,2.80134066 16.2239273,2.69010989 15.9748477,2.69010989 L3.12632578,2.69010989 L2.86684453,1.42453846 C2.81267109,1.16053846 2.63344922,0.938868132 2.38732266,0.831494505 L0.576827344,0.0419340659 C0.367811719,-0.0492857143 0.124900781,0.0470769231 0.0342398438,0.257010989 C-0.0565195312,0.467010989 0.0393914063,0.711098901 0.248308594,0.802186813 L2.05883672,1.59178022 L4.05468984,11.3256593 C4.13330859,11.709 4.47311484,11.9872418 4.86269766,11.9872418 L14.744707,11.9872418 C14.9725242,11.9872418 15.157193,11.8017033 15.157193,11.5728132 C15.157193,11.3439231 14.9725242,11.1583846 14.744707,11.1583846 L4.86273047,11.1583846 L4.61995078,9.97434066 L14.8210945,9.97434066 C15.2106445,9.97434066 15.5504836,9.6960989 15.6290695,9.31275824 L16.7828555,3.68610989 C16.8330914,3.4410989 16.7716664,3.18926374 16.6143305,2.99531868 L16.6143305,2.99531868 Z" id="Fill-5" fill="#FFFFFF" mask="url(#mask-2)"></path>
                        </g>
                    </g>
                </g>
            </g>
        </g>
    </g>
</svg>