<?xml version="1.0" encoding="utf-8"?>
<!-- Generator: Adobe Illustrator 19.2.1, SVG Export Plug-In . SVG Version: 6.00 Build 0)  -->
<svg version="1.2" baseProfile="tiny" id="Layer_1" xmlns="http://www.w3.org/2000/svg" xmlns:xlink="http://www.w3.org/1999/xlink"
	 x="0px" y="0px" viewBox="0 0 301.2 512" xml:space="preserve">
<g>
	<path fill="none" d="M150.6,30.7c-66.1,0-119.9,53.8-119.9,119.9v210.8c0,66.1,53.8,119.9,119.9,119.9
		c66.1,0,119.9-53.8,119.9-119.9V150.6C270.5,84.5,216.7,30.7,150.6,30.7z M166,187.9c0,8.5-6.9,15.4-15.4,15.4
		c-8.5,0-15.4-6.9-15.4-15.4v-70.7c0-8.5,6.9-15.4,15.4-15.4c8.5,0,15.4,6.9,15.4,15.4V187.9z"/>
	<path d="M301.2,150.6C301.2,67.5,233.6,0,150.6,0C67.6,0,0,67.6,0,150.6v210.8C0,444.4,67.6,512,150.6,512h0
		c83,0,150.6-67.5,150.6-150.6V150.6z M150.6,481.3c-66.1,0-119.9-53.8-119.9-119.9V150.6c0-66.1,53.8-119.9,119.9-119.9
		c66.1,0,119.9,53.8,119.9,119.9v210.8C270.5,427.5,216.7,481.3,150.6,481.3z"/>
	<path d="M150.6,101.9c-8.5,0-15.4,6.9-15.4,15.4v70.7c0,8.5,6.9,15.4,15.4,15.4c8.5,0,15.4-6.9,15.4-15.4v-70.7
		C166,108.7,159.1,101.9,150.6,101.9z"/>
</g>
</svg>
