<?xml version="1.0" encoding="utf-8"?>
<!-- Generator: Adobe Illustrator 19.2.1, SVG Export Plug-In . SVG Version: 6.00 Build 0)  -->
<svg version="1.2" baseProfile="tiny" id="Layer_1" xmlns="http://www.w3.org/2000/svg" xmlns:xlink="http://www.w3.org/1999/xlink"
	 x="0px" y="0px" viewBox="0 0 207.3 199.4" xml:space="preserve">
<g>
	<path fill="#B59035" d="M50.4,180c-7.8-10.9-12.5-24.7-13.8-40.6c-1.9-25.2,5.2-52.7,20-77.6c12-20.1,27.9-36.4,45.3-47.3
		C88.8,5.6,74.7,0.5,61.1,0l0,0c-0.3,0-0.5,0-0.8,0C56.6-0.1,53,0.2,49.5,0.8c0,0,0,0,0.1,0.1C37.5,2.9,30.5,8,30.5,8
		C10.7,20.4,0,45.3,0,74.2c0,17.7,4,36.8,12.4,55.5C21.8,150.7,35.2,167.9,50.4,180z"/>
	<path fill="#B59035" d="M178,12.9c0,0-0.1,0-0.1-0.1c-14.8,9.7-44.8,36.1-50,94c-4.8,53.1-27.2,78.7-43.4,90.5
		c33.8,9.3,77.4-13.9,103.4-57.4C217.3,90.6,212.9,33.7,178,12.9z"/>
	<path fill="#B59035" d="M116.7,105.8c2.5-27.9,10.4-49.1,20-65.1c9.5-15.9,20.5-26.5,29.3-33.2c-34-10.1-78.2,13.1-104.4,57.1
		C32,114,36.4,171,71.3,191.8c0.2,0.1,0.5,0.2,0.7,0.4C85.4,184.5,111.6,162.4,116.7,105.8z"/>
</g>
</svg>
