<?xml version="1.0" encoding="utf-8"?>
<!-- Generator: Adobe Illustrator 19.2.1, SVG Export Plug-In . SVG Version: 6.00 Build 0)  -->
<svg version="1.2" baseProfile="tiny" id="Layer_1" xmlns="http://www.w3.org/2000/svg" xmlns:xlink="http://www.w3.org/1999/xlink"
	 x="0px" y="0px" viewBox="0 0 485.2 485.2" xml:space="preserve">
<g>
	<path fill="none" d="M363.9,272.9c-50.2,0-91,40.8-91,91c0,50.2,40.8,91,91,91c50.2,0,91-40.8,91-91
		C454.9,313.7,414.1,272.9,363.9,272.9z M409.4,394.2h-60.7c-8.4,0-15.2-6.8-15.2-15.2v-60.7c0-8.4,6.8-15.2,15.2-15.2
		c8.4,0,15.2,6.8,15.2,15.2v45.5h45.5c8.4,0,15.2,6.8,15.2,15.2C424.6,387.5,417.8,394.2,409.4,394.2z"/>
	<path fill="#B59035" d="M60.7,15.2v60.7c0,8.4,6.8,15.2,15.2,15.2C84.2,91,91,84.2,91,75.8V15.2C91,6.8,84.2,0,75.8,0h0
		C67.4,0,60.7,6.8,60.7,15.2z"/>
	<rect x="242.6" y="182" fill="#B59035" width="60.6" height="60.7"/>
	<path fill="#B59035" d="M303.3,15.2v60.7c0,8.4,6.8,15.2,15.2,15.2c8.4,0,15.2-6.8,15.2-15.2V15.2c0-8.4-6.8-15.2-15.2-15.2h0
		C310,0,303.3,6.8,303.3,15.2z"/>
	<path fill="#B59035" d="M485.2,363.9c0-67-54.3-121.3-121.3-121.3c-67,0-121.3,54.3-121.3,121.3c0,67,54.3,121.3,121.3,121.3h0.1
		C430.9,485.2,485.2,430.9,485.2,363.9L485.2,363.9z M363.9,454.9c-50.2,0-91-40.8-91-91c0-50.2,40.8-91,91-91c50.2,0,91,40.8,91,91
		C454.9,414.1,414.1,454.9,363.9,454.9z"/>
	<path fill="#B59035" d="M32.9,394.2h179.4v-30.3H32.9c-1.4,0-2.5-1.4-2.5-3V151.6h333.6v60.7h30.3V94c0-18.4-14.7-33.3-32.8-33.3
		h-12.6v15.2c0,16.7-13.6,30.3-30.3,30.3c-16.7,0-30.3-13.6-30.3-30.3V60.7h-182v15.2c0,16.7-13.6,30.3-30.3,30.3
		c-16.7,0-30.3-13.6-30.3-30.3V60.7H32.9C14.7,60.7,0,75.6,0,94v266.9C0,379.3,14.7,394.2,32.9,394.2z"/>
	<path fill="#B59035" d="M409.4,363.9h-45.5v-45.5c0-8.4-6.8-15.2-15.2-15.2c-8.4,0-15.2,6.8-15.2,15.2v60.7
		c0,8.4,6.8,15.2,15.2,15.2h60.7c8.4,0,15.2-6.8,15.2-15.2C424.6,370.7,417.8,363.9,409.4,363.9z"/>
	<rect x="151.6" y="272.9" fill="#B59035" width="60.7" height="60.7"/>
	<rect x="60.7" y="182" fill="#B59035" width="60.7" height="60.7"/>
	<rect x="151.6" y="182" fill="#B59035" width="60.7" height="60.7"/>
	<rect x="60.7" y="272.9" fill="#B59035" width="60.7" height="60.7"/>
</g>
</svg>
