<?xml version="1.0" encoding="UTF-8"?>
<svg width="16px" height="16px" viewBox="0 0 16 16" version="1.1" xmlns="http://www.w3.org/2000/svg" xmlns:xlink="http://www.w3.org/1999/xlink">
    <!-- Generator: Sketch 54.1 (76490) - https://sketchapp.com -->
    <title>Group 5</title>
    <desc>Created with Sketch.</desc>
    <g id="Page-1" stroke="none" stroke-width="1" fill="none" fill-rule="evenodd">
        <g id="Homepage" transform="translate(-150.000000, -5253.000000)">
            <g id="Group-9" transform="translate(-132.000000, 4780.000000)">
                <g id="Group-29" transform="translate(132.000000, 154.000000)">
                    <g id="Group-5" transform="translate(150.000000, 320.000000)">
                        <path d="M3.9996,10 L3.9996,12.001 L3.9996,15 L11.9996,15 L11.9996,12.001 L11.9996,10 L3.9996,10 Z M5.0006,12.001 L10.9996,12.001 L10.9996,11.001 L5.0006,11.001 L5.0006,12.001 Z M5.0006,14.001 L10.9996,14.001 L10.9996,13.001 L5.0006,13.001 L5.0006,14.001 Z" id="Fill-1" fill="#FFFFFF"></path>
                        <rect id="Rectangle" fill="#000000" x="5" y="11" width="6" height="1"></rect>
                        <rect id="Rectangle-Copy" fill="#000000" x="5" y="13" width="6" height="1"></rect>
                        <polygon id="Fill-2" fill="#FFFFFF" points="3.9996 -0.0003 3.9996 3.0007 3.9996 4.9997 11.9996 4.9997 11.9996 3.0007 11.9996 -0.0003"></polygon>
                        <path d="M14,3 L13,3 L13,5 L13,6 L3,6 L3,5 L3,3 L2,3 C1,3 0,4 0,5 L0,10 C0,11 1,12 2,12 L3,12 L3,10 L3,9 L13,9 L13,10 L13,12 L14,12 C15,12 16,11 16,10 L16,5 C16,4 15,3 14,3" id="Fill-3" fill="#FFFFFF"></path>
                    </g>
                </g>
            </g>
        </g>
    </g>
</svg>