<?xml version="1.0" encoding="UTF-8"?>
<svg width="16px" height="14px" viewBox="0 0 16 14" version="1.1" xmlns="http://www.w3.org/2000/svg" xmlns:xlink="http://www.w3.org/1999/xlink">
    <!-- Generator: Sketch 54.1 (76490) - https://sketchapp.com -->
    <title>Group 3</title>
    <desc>Created with Sketch.</desc>
    <g id="Page-1" stroke="none" stroke-width="1" fill="none" fill-rule="evenodd">
        <g id="Homepage" transform="translate(-1102.000000, -2137.000000)" fill="#FFFFFF">
            <g id="Group-30-Copy-2" transform="translate(930.000000, 2009.000000)">
                <g id="Group-3" transform="translate(172.000000, 128.000000)">
                    <path d="M4.46971875,0.921787427 C3.49890625,0.921787427 2.6070625,1.30283306 1.95825,1.99484979 C1.29978125,2.69731622 0.937125,3.6683095 0.937125,4.72913955 C0.937125,5.84842651 1.36009375,6.84944733 2.30846875,7.97485044 C3.22509375,9.06269607 4.5885,10.2054027 6.16709375,11.5285205 L6.17003125,11.5309178 C6.72190625,11.9935019 7.34753125,12.5179237 7.99865625,13.0778745 C8.6536875,12.516848 9.28025,11.9915963 9.83325,11.5283053 C11.41175,10.2051568 12.7750312,9.06269607 13.6916562,7.97485044 C14.639875,6.84944733 15.0628437,5.84842651 15.0628437,4.72913955 C15.0628437,3.6683095 14.7001875,2.69731622 14.04175,1.99484979 C13.3930625,1.30283306 12.5010937,0.921787427 11.530375,0.921787427 C10.8192187,0.921787427 10.16625,1.14412039 9.58971875,1.58257796 C9.07590625,1.97348935 8.718,2.46763773 8.50815625,2.81340022 C8.40025,2.99119897 8.2103125,3.09732501 8,3.09732501 C7.78965625,3.09732501 7.59971875,2.99119897 7.4918125,2.81340022 C7.28209375,2.46763773 6.9241875,1.97348935 6.41028125,1.58257796 C5.83371875,1.14412039 5.18078125,0.921787427 4.46971875,0.921787427 M8,14 C7.77221875,14 7.55259375,13.9188611 7.38146875,13.7714279 C6.73509375,13.2155648 6.1119375,12.6932022 5.562125,12.2324314 L5.5593125,12.2300341 C3.947375,10.8790402 2.55540625,9.71233 1.58690625,8.56301549 C0.50425,7.27816208 0,6.05997168 0,4.72913955 C0,3.43614151 0.4508125,2.24324556 1.26928125,1.37008002 C2.09753125,0.486587708 3.234,0 4.46971875,0 C5.3933125,0 6.239125,0.287182639 6.983625,0.85346476 C7.359375,1.13932582 7.6999375,1.48917599 8,1.89723719 C8.30015625,1.48917599 8.640625,1.13932582 9.01646875,0.85346476 C9.76096875,0.287182639 10.6068125,0 11.530375,0 C12.7659687,0 13.9025937,0.486587708 14.7308125,1.37008002 C15.5493125,2.24324556 16,3.43614151 16,4.72913955 C16,6.05997168 15.4958437,7.27816208 14.4131875,8.56289255 C13.4446875,9.71233 12.0528437,10.8789173 10.4411562,12.2297883 C9.890375,12.6912659 9.26621875,13.2144891 8.61840625,13.7716738 C8.447375,13.9188611 8.22765625,14 8,14" id="Fill-1"></path>
                </g>
            </g>
        </g>
    </g>
</svg>