<?xml version="1.0" encoding="utf-8"?>
<!-- Generator: Adobe Illustrator 19.2.1, SVG Export Plug-In . SVG Version: 6.00 Build 0)  -->
<svg version="1.2" baseProfile="tiny" id="Layer_1" xmlns="http://www.w3.org/2000/svg" xmlns:xlink="http://www.w3.org/1999/xlink"
	 x="0px" y="0px" viewBox="0 0 436 411.9" xml:space="preserve">
<polygon fill="#B59035" points="103,84.8 33,121.2 33,164.7 103,128.3 "/>
<g>
	<path fill="none" d="M321.1,240.3c2.1,1.4,4.8,1.5,7,0.3l84.9-43.6c2.2-1.1,3.7-3.4,3.9-5.9c0.1-2.5-1.1-4.9-3.2-6.3
		c-2.1-1.4-4.8-1.5-7-0.3l-84.9,43.6c-2.2,1.1-3.7,3.4-3.8,5.9C317.8,236.5,319,238.9,321.1,240.3z"/>
	<path fill="none" d="M21.7,261c2.1,1.4,4.8,1.5,7,0.3l84.9-43.6c2.2-1.1,3.7-3.4,3.8-5.9c0.1-2.5-1.1-4.9-3.2-6.2
		c-2.1-1.4-4.8-1.5-7-0.3l-84.9,43.6c-2.2,1.1-3.7,3.4-3.8,5.9C18.4,257.3,19.6,259.7,21.7,261z"/>
	<path fill="none" d="M321.1,190.9c2.1,1.4,4.8,1.5,7,0.3l84.9-43.6c2.2-1.1,3.7-3.4,3.9-5.9c0.1-2.5-1.1-4.9-3.2-6.3
		c-2.1-1.4-4.8-1.5-7-0.3l-84.9,43.6c-2.2,1.1-3.7,3.4-3.8,5.9C317.8,187.2,319,189.6,321.1,190.9z"/>
	<path fill="none" d="M22.1,182.1c1.1,0.7,2.3,1,3.5,1c1.1,0,2.2-0.3,3.1-0.8l84.7-43.6c2.3-1.2,3.7-3.6,3.5-6.2V73.4
		c0.1-2.4-1.1-4.7-3.1-6c-2-1.3-4.6-1.4-6.7-0.3l-84.6,43.6c-2.3,1.2-3.6,3.6-3.5,6.2v59.2C18.9,178.6,20.1,180.8,22.1,182.1z"/>
	<path fill="none" d="M321.1,141.6c2.1,1.4,4.8,1.5,7,0.3l84.9-43.6c2.2-1.1,3.7-3.4,3.9-5.9c0.1-2.5-1.1-4.9-3.2-6.3
		c-2.1-1.4-4.8-1.5-7-0.3l-84.9,43.6c-2.2,1.1-3.7,3.4-3.8,5.9C317.8,137.9,319,140.2,321.1,141.6z"/>
	<path fill="none" d="M114.3,255c-2.1-1.4-4.8-1.5-7-0.3l-84.9,43.6c-2.2,1.1-3.7,3.4-3.8,5.9c-0.1,2.5,1.1,4.9,3.2,6.2
		c2.1,1.4,4.8,1.5,7,0.3l84.9-43.6c2.2-1.1,3.7-3.4,3.8-5.9C117.6,258.7,116.4,256.3,114.3,255z"/>
	<path fill="none" d="M260.5,180.8L182,139.4c-3.4-1.8-7.6-0.4-9.4,3c-1.8,3.4-0.5,7.6,2.9,9.4l78.6,41.3c3.4,1.8,7.7,0.5,9.5-2.9
		C265.3,186.8,264,182.6,260.5,180.8z"/>
	<path fill="none" d="M260.4,249.9l-78.5-41.3c-2.1-1.1-4.7-1.1-6.7,0.2c-2.1,1.3-3.3,3.6-3.2,6v69.1c-0.1,2.6,1.3,5,3.6,6.2
		l78.5,41.3c1,0.5,2.1,0.8,3.2,0.8c1.2,0,2.4-0.4,3.5-1c2.1-1.3,3.3-3.6,3.2-6v-69.1C264.1,253.5,262.7,251.1,260.4,249.9z
		 M250,313.6l-64-34v-53.3l64,34V313.6z"/>
	<path fill="none" d="M175.5,92.6L254,134c1.6,0.9,3.6,1,5.3,0.5c1.8-0.6,3.3-1.8,4.1-3.4c1.8-3.4,0.5-7.7-2.9-9.5L182,80.2
		c-3.4-1.8-7.7-0.5-9.5,2.9C170.7,86.6,172,90.8,175.5,92.6z"/>
	<path fill="#B59035" d="M283,411V70.5L151,1.3v339.4L283,411z M264,325.2c0.1,2.4-1.2,4.7-3.2,6c-1,0.7-2.2,1-3.5,1
		c-1.1,0-2.2-0.3-3.2-0.8L175.6,290c-2.3-1.2-3.7-3.6-3.6-6.2v-69.1c-0.1-2.4,1.2-4.7,3.2-6c2-1.3,4.6-1.3,6.7-0.2l78.5,41.3
		c2.3,1.2,3.7,3.6,3.6,6.2V325.2z M263.5,190.2c-1.8,3.4-6,4.7-9.5,2.9l-78.6-41.3c-3.4-1.8-4.7-6-2.9-9.4c1.8-3.4,6-4.7,9.4-3
		l78.6,41.3C264,182.6,265.3,186.8,263.5,190.2z M172.5,83.2c1.8-3.4,6-4.7,9.5-2.9l78.6,41.3c3.4,1.8,4.7,6,2.9,9.5
		c-0.9,1.6-2.3,2.9-4.1,3.4c-1.8,0.5-3.7,0.4-5.3-0.5l-78.6-41.3C172,90.8,170.7,86.6,172.5,83.2z"/>
	<polygon fill="#B59035" points="186,279.6 250,313.6 250,260.3 186,226.3 	"/>
	<path fill="#B59035" d="M0,411.5l137-70.8V1.2L0,70.9V411.5z M113.6,267.1l-84.9,43.6c-2.2,1.2-4.9,1-7-0.3
		c-2.1-1.4-3.3-3.7-3.2-6.2c0.1-2.5,1.6-4.8,3.8-5.9l84.9-43.6c2.2-1.2,4.9-1,7,0.3c2.1,1.4,3.3,3.7,3.2,6.2
		C117.3,263.7,115.9,266,113.6,267.1z M19,116.9c-0.1-2.6,1.2-5,3.5-6.2l84.6-43.6c2.1-1.1,4.7-1,6.7,0.3c2,1.3,3.2,3.6,3.1,6v59.2
		c0.1,2.6-1.3,5-3.5,6.2l-84.7,43.6c-1,0.5-2,0.8-3.1,0.8c-1.2,0-2.5-0.4-3.5-1c-2-1.3-3.2-3.6-3.1-6V116.9z M22.3,248.9l84.9-43.6
		c2.2-1.2,4.9-1,7,0.3c2.1,1.4,3.3,3.7,3.2,6.2c-0.1,2.5-1.6,4.8-3.8,5.9l-84.9,43.6c-2.2,1.2-4.9,1-7-0.3c-2.1-1.4-3.3-3.7-3.2-6.2
		C18.6,252.3,20.1,250,22.3,248.9z"/>
	<path fill="#B59035" d="M297,411.9L297,411.9l139-71.2V0h0L297,71.2V411.9z M321.8,129.5l84.9-43.6c2.2-1.2,4.9-1.1,7,0.3
		c2.1,1.4,3.3,3.8,3.2,6.3c-0.1,2.5-1.6,4.8-3.9,5.9l-84.9,43.6c-2.2,1.2-4.9,1-7-0.3c-2.1-1.4-3.3-3.7-3.2-6.2
		C318.1,132.8,319.5,130.6,321.8,129.5z M321.8,178.8l84.9-43.6c2.2-1.2,4.9-1.1,7,0.3c2.1,1.4,3.3,3.8,3.2,6.3
		c-0.1,2.5-1.6,4.8-3.9,5.9l-84.9,43.6c-2.2,1.2-4.9,1-7-0.3c-2.1-1.4-3.3-3.7-3.2-6.2C318.1,182.2,319.5,179.9,321.8,178.8z
		 M321.8,228.2l84.9-43.6c2.2-1.2,4.9-1,7,0.3c2.1,1.4,3.3,3.8,3.2,6.3c-0.1,2.5-1.6,4.8-3.9,5.9l-84.9,43.6c-2.2,1.2-4.9,1-7-0.3
		c-2.1-1.4-3.3-3.7-3.2-6.2C318.1,231.5,319.5,229.3,321.8,228.2z"/>
</g>
</svg>
