<?xml version="1.0" encoding="utf-8"?>
<!-- Generator: Adobe Illustrator 19.2.1, SVG Export Plug-In . SVG Version: 6.00 Build 0)  -->
<svg version="1.2" baseProfile="tiny" id="Layer_1" xmlns="http://www.w3.org/2000/svg" xmlns:xlink="http://www.w3.org/1999/xlink"
	 x="0px" y="0px" viewBox="0 0 352.5 425" xml:space="preserve">
<g>
	<path fill="none" d="M224.8,274C223.3,271.4,224,272.6,224.8,274c-4.8-8.4-13.1-13.7-21.8-17.1c-5.8-2.3-11.8-3.9-17.9-5.3V212
		c5.1,0.9,10.2,2.5,14.3,5.6c1.9,1.4,3.6,3.2,4.9,5.2c0.7,1,1.3,2.1,1.7,3.3c0.4,1.1,0.7,2.3,1.1,3.5c1.5,3.8,5.2,6.5,9.3,6.7
		c4.2,0.2,8.2-2.2,9.9-6c0.9-1.8,1.2-3.9,0.9-6c-0.2-1.3-0.6-2.5-1-3.7c-0.4-1.3-0.9-2.6-1.5-3.8c-2-4.5-4.9-8.6-8.4-12
		c-7.4-7.3-17.2-11.4-27.3-13.2c-1.4-0.2-2.7-0.5-4.1-0.6V190v-10.6c0-4-2.4-7.8-6.1-9.5c-3.7-1.7-8.2-1-11.3,1.7
		c-2.2,2-3.5,4.9-3.5,7.8V190v0.9c-10.3,1.5-20.5,5.4-28.2,12.5c-3.6,3.3-6.5,7.3-8.6,11.8c-2.2,4.8-3.2,9.9-3.1,15.2
		c0,5.1,1,10.3,3.2,15c2.1,4.4,5.4,8.1,9.3,11.1c7.9,6.2,17.8,9.4,27.4,11.8v41.4c-4.9-1.4-9.6-3.7-13.3-7.2
		c-1.8-1.7-3.3-3.7-4.6-5.9c-0.6-1.1-1.2-2.2-1.6-3.4c-0.4-1.2-0.7-2.4-1.1-3.6c-1.3-3.9-4.9-6.8-9-7.1c-4.2-0.4-8.3,1.9-10.2,5.6
		c-0.9,1.8-1.3,3.9-1.1,5.9c0.1,1.2,0.5,2.4,0.8,3.5c0.4,1.3,0.8,2.5,1.3,3.8c1.9,4.7,4.6,9.1,7.9,13c6.7,7.8,15.8,13,25.6,15.7
		c1.8,0.5,3.6,0.9,5.4,1.2v12.2c0,4,2.4,7.8,6.1,9.5c3.7,1.7,8.2,1,11.3-1.7c2.2-2,3.5-4.9,3.5-7.8v-11.1
		c10.5-0.9,21.1-3.9,29.5-10.4c8-6.2,13.3-15.3,14.4-25.4C229.9,288.7,228.6,280.7,224.8,274C225.6,275.3,226.2,276.5,224.8,274z
		 M164.2,246.5c-2.4-0.7-4.7-1.5-6.7-2.3c-2.4-1-4.7-2.1-6.8-3.5c-1.9-1.3-3.7-2.9-4.6-5.1c-0.9-2.3-1.1-5-0.8-7.4
		c0.2-2.4,1.1-4.7,2.5-6.7c3.7-5.3,10.3-8.1,16.4-9.4V246.5z M206.1,300.4c0-0.1,0.1-0.2,0.2-0.3
		C206.2,300.3,206.1,300.4,206.1,300.4z M206.4,299.9c0.1-0.1,0.1-0.2,0.2-0.3C206.5,299.7,206.5,299.8,206.4,299.9z M206.4,299.9
		C206.4,299.9,206.4,299.9,206.4,299.9C206.4,299.9,206.4,299.9,206.4,299.9C206.4,299.9,206.4,299.9,206.4,299.9
		c-4.2,7.4-13.3,10.3-21.3,11.2v-38c4.9,1.3,9.8,2.7,14.4,5.1c2.1,1.1,4.1,2.4,5.7,4.1c1.5,1.6,2.4,3.6,2.8,5.7
		C208.8,292,208.4,296.3,206.4,299.9z"/>
	<path fill="#B59035" d="M205.2,282.3c-1.6-1.7-3.6-3-5.7-4.1c-4.5-2.4-9.5-3.8-14.4-5.1v38c8-0.9,17.1-3.8,21.3-11.2c0,0,0,0,0,0
		c0,0,0,0,0,0c0,0,0,0,0,0c2-3.6,2.4-7.9,1.6-11.9C207.5,285.9,206.6,283.9,205.2,282.3z"/>
	<path fill="none" stroke="#000000" stroke-width="0" stroke-linecap="round" stroke-linejoin="round" d="M206.4,299.9
		C206.4,299.9,206.4,299.9,206.4,299.9"/>
	
		<line fill="none" stroke="#000000" stroke-width="0" stroke-linecap="round" stroke-linejoin="round" x1="206.4" y1="299.9" x2="206.4" y2="299.9"/>
	<path fill="#B59035" d="M147.8,221.5c-1.4,2-2.2,4.3-2.5,6.7c-0.2,2.4-0.1,5.1,0.8,7.4c0.9,2.2,2.7,3.8,4.6,5.1
		c2.1,1.4,4.5,2.6,6.8,3.5c2,0.8,4.2,1.6,6.7,2.3v-34.4C158.1,213.4,151.4,216.2,147.8,221.5z"/>
	<path fill="none" stroke="#000000" stroke-width="0" stroke-linecap="round" stroke-linejoin="round" d="M206.6,299.6
		c0,0.1-0.1,0.2-0.2,0.3"/>
	<path fill="#B59035" d="M198.5,92.5c32.3-27.2,53.9-88.3,40.6-91c-17.7-3.6-56,12-74.6,14.8c-26.3,3.2-54.9-28.5-71-10.9
		c-13.1,14.4,9.4,66.6,44.5,89.3c-104.8,51.5-252,309.9,4.9,328.7C498.3,449.4,320.4,142.6,198.5,92.5z M229,296.3
		c-1.1,10.1-6.4,19.2-14.4,25.4c-8.4,6.5-19,9.6-29.5,10.4v11.1c0,3-1.3,5.9-3.5,7.8c-3.1,2.7-7.6,3.4-11.3,1.7
		c-3.7-1.7-6.1-5.5-6.1-9.5v-12.2c-1.8-0.3-3.6-0.7-5.4-1.2c-9.8-2.7-18.9-8-25.6-15.7c-3.3-3.9-6-8.3-7.9-13
		c-0.5-1.2-0.9-2.5-1.3-3.8c-0.3-1.2-0.7-2.3-0.8-3.5c-0.2-2,0.2-4.1,1.1-5.9c1.9-3.7,6-5.9,10.2-5.6c4.1,0.4,7.7,3.2,9,7.1
		c0.4,1.2,0.7,2.4,1.1,3.6c0.4,1.2,1,2.3,1.6,3.4c1.2,2.2,2.8,4.1,4.6,5.9c3.7,3.6,8.4,5.9,13.3,7.2v-41.4
		c-9.6-2.5-19.5-5.7-27.4-11.8c-3.8-3-7.1-6.7-9.3-11.1c-2.3-4.6-3.2-9.8-3.2-15c0-5.2,1-10.4,3.1-15.2c2-4.5,5-8.5,8.6-11.8
		c7.7-7.1,17.9-11,28.2-12.5V190v-10.6c0-3,1.3-5.9,3.5-7.8c3.1-2.7,7.6-3.4,11.3-1.7c3.7,1.7,6.1,5.5,6.1,9.5V190v0.8
		c1.4,0.2,2.7,0.4,4.1,0.6c10.1,1.8,19.9,6,27.3,13.2c3.5,3.4,6.3,7.5,8.4,12c0.6,1.2,1.1,2.5,1.5,3.8c0.4,1.2,0.8,2.5,1,3.7
		c0.3,2,0,4.1-0.9,6c-1.8,3.8-5.7,6.2-9.9,6c-4.1-0.2-7.8-2.9-9.3-6.7c-0.4-1.1-0.7-2.4-1.1-3.5c-0.5-1.2-1-2.3-1.7-3.3
		c-1.3-2-3-3.8-4.9-5.2c-4.2-3.1-9.3-4.7-14.3-5.6v39.6c6,1.4,12.1,3,17.9,5.3c8.7,3.4,17,8.7,21.8,17.1c-0.7-1.3-1.5-2.6,0,0
		c1.5,2.6,0.8,1.3,0,0.1C228.6,280.7,229.9,288.7,229,296.3z"/>
	<path fill="none" stroke="#000000" stroke-width="0" stroke-linecap="round" stroke-linejoin="round" d="M206.3,300.2
		c-0.1,0.1-0.1,0.2-0.2,0.3"/>
</g>
</svg>
