<?xml version="1.0" encoding="UTF-8"?>
<svg width="31px" height="30px" viewBox="0 0 31 30" version="1.1" xmlns="http://www.w3.org/2000/svg" xmlns:xlink="http://www.w3.org/1999/xlink">
    <!-- Generator: Sketch 54.1 (76490) - https://sketchapp.com -->
    <title>call-answer</title>
    <desc>Created with Sketch.</desc>
    <g id="Page-1" stroke="none" stroke-width="1" fill="none" fill-rule="evenodd">
        <g id="Call-+-Chatbot-Copy" transform="translate(-60.000000, -171.000000)" fill="#FFFFFF" fill-rule="nonzero">
            <g id="Group-34" transform="translate(26.000000, 136.000000)">
                <g id="call-answer" transform="translate(34.000000, 35.000000)">
                    <path d="M29.6845976,23.7285544 L25.0515656,19.0845063 C24.1287514,18.1633157 22.6005533,18.1913039 21.645591,19.1487754 L19.3114496,21.4876874 C19.163982,21.406228 19.0113432,21.3211405 18.8508613,21.2308701 C17.3768753,20.4123027 15.3594745,19.2903575 13.2365796,17.1610977 C11.1073931,15.0273459 9.98695001,13.0022641 9.16773376,11.5239882 C9.08128727,11.3673754 8.99846067,11.2163776 8.91666832,11.0729814 L10.4832201,9.50521244 L11.2533954,8.73234182 C12.2098229,7.77348813 12.2361964,6.24225925 11.3155369,5.31839077 L6.68250486,0.673824435 C5.76184541,-0.248748304 4.23295776,-0.220760142 3.27653032,0.738093547 L1.97078321,2.0543146 L2.00646502,2.0898181 C1.56863034,2.6497541 1.20276259,3.29555502 0.930494925,3.9919765 C0.679515679,4.65488129 0.523256965,5.28746558 0.451807173,5.92134561 C-0.159954739,11.0044795 2.15763864,15.6500825 8.44728887,21.9540704 C17.1414961,30.6673725 24.1478851,30.0091324 24.4501462,29.9769978 C25.1084496,29.89813 25.7393452,29.7404806 26.3804972,29.4909195 C27.0693111,29.2212311 27.7132211,28.8550526 28.2715465,28.4171761 L28.3000747,28.4425728 L29.6228871,27.1443195 C30.5773322,26.1856385 30.6048261,24.6538914 29.6845976,23.7285544 Z" id="Path"></path>
                </g>
            </g>
        </g>
    </g>
</svg>