<?xml version="1.0" encoding="UTF-8"?>
<svg width="30px" height="30px" viewBox="0 0 30 30" version="1.1" xmlns="http://www.w3.org/2000/svg" xmlns:xlink="http://www.w3.org/1999/xlink">
    <!-- Generator: Sketch 54.1 (76490) - https://sketchapp.com -->
    <title>Group 19</title>
    <desc>Created with Sketch.</desc>
    <defs>
        <polygon id="path-1" points="0.0001 0.1954 20.8594333 0.1954 20.8594333 20 0.0001 20"></polygon>
        <polygon id="path-3" points="0.1511 0.000166666667 18.6666667 0.000166666667 18.6666667 19.1165 0.1511 19.1165"></polygon>
    </defs>
    <g id="08.FAQ" stroke="none" stroke-width="1" fill="none" fill-rule="evenodd">
        <g id="FAQ" transform="translate(-250.000000, -479.000000)">
            <g id="Group-19" transform="translate(250.000000, 479.000000)">
                <g id="Group-3" transform="translate(0.000000, 10.000000)">
                    <mask id="mask-2" fill="white">
                        <use xlink:href="#path-1"></use>
                    </mask>
                    <g id="Clip-2"></g>
                    <path d="M20.2734333,8.6914 C19.9497667,8.6914 19.6874333,8.95373333 19.6874333,9.2774 L19.6874333,13.3204 C19.6874333,14.9357333 18.3731,16.2500667 16.7577667,16.2500667 L10.4314333,16.2500667 C10.1081,16.2500667 9.84576667,16.5120667 9.84576667,16.8354 L9.84476667,18.0004 L8.44643333,16.6020667 C8.35576667,16.3940667 8.14843333,16.2500667 7.90876667,16.2500667 L4.10143333,16.2500667 C2.4861,16.2500667 1.17176667,14.9357333 1.17176667,13.3204 L1.17176667,4.29673333 C1.17176667,2.6814 2.4861,1.36706667 4.10143333,1.36706667 L10.0194333,1.36706667 C10.3431,1.36706667 10.6054333,1.10473333 10.6054333,0.7814 C10.6054333,0.457733333 10.3431,0.1954 10.0194333,0.1954 L4.10143333,0.1954 C1.8401,0.1954 0.0001,2.0354 0.0001,4.29673333 L0.0001,13.3204 C0.0001,15.5820667 1.8401,17.4217333 4.10143333,17.4217333 L7.60876667,17.4217333 L10.0154333,19.8284 C10.1274333,19.9404 10.2774333,20.0000667 10.4297667,20.0000667 C10.5051,20.0000667 10.5814333,19.9854 10.6537667,19.9554 C10.8727667,19.8647333 11.0154333,19.6514 11.0157667,19.4144 L11.0171,17.4217333 L16.7577667,17.4217333 C19.0194333,17.4217333 20.8594333,15.5820667 20.8594333,13.3204 L20.8594333,9.2774 C20.8594333,8.95373333 20.5971,8.6914 20.2734333,8.6914" id="Fill-1" fill="#000000" mask="url(#mask-2)"></path>
                </g>
                <g id="Group-6" transform="translate(11.333333, 0.000000)">
                    <mask id="mask-4" fill="white">
                        <use xlink:href="#path-3"></use>
                    </mask>
                    <g id="Clip-5"></g>
                    <path d="M14.5641,14.3868333 C14.4171,14.4975 14.3307667,14.6708333 14.3307667,14.8548333 L14.3307667,17.1165 L12.8967667,15.6835 C12.7854333,15.5721667 12.6357667,15.5121667 12.4827667,15.5121667 C12.4251,15.5121667 12.3671,15.5205 12.3104333,15.5378333 C11.6131,15.7521667 10.8864333,15.8608333 10.1504333,15.8608333 L8.66743333,15.8608333 C4.61743333,15.8608333 1.32276667,12.5661667 1.32276667,8.5165 C1.32276667,4.4665 4.61776667,1.17183333 8.66743333,1.17183333 L10.1504333,1.17183333 C14.2001,1.17183333 17.4947667,4.4665 17.4947667,8.5165 C17.4947667,10.8445 16.4267667,12.9841667 14.5641,14.3868333 M10.1504333,0.000166666667 L8.66743333,0.000166666667 C3.97143333,0.000166666667 0.1511,3.8205 0.1511,8.5165 C0.1511,13.2121667 3.97143333,17.0328333 8.66743333,17.0328333 L10.1504333,17.0328333 C10.8831,17.0328333 11.6087667,16.9395 12.3117667,16.7555 L14.5024333,18.9451667 C14.6144333,19.0568333 14.7644333,19.1165 14.9167667,19.1165 C14.9924333,19.1165 15.0684333,19.1018333 15.1411,19.0718333 C15.3597667,18.9811667 15.5024333,18.7675 15.5024333,18.5305 L15.5024333,15.1405 C16.4301,14.3895 17.2004333,13.4405 17.7411,12.3808333 C18.3554333,11.1768333 18.6667667,9.87683333 18.6667667,8.5165 C18.6667667,3.8205 14.8461,0.000166666667 10.1504333,0.000166666667" id="Fill-4" fill="#000000" mask="url(#mask-4)"></path>
                </g>
                <path d="M23.3808333,6.4114 C23.2961667,5.18473333 22.3075,4.19606667 21.0808333,4.1114 C20.3855,4.06373333 19.7218333,4.29806667 19.2138333,4.7724 C18.7128333,5.24006667 18.4255,5.90106667 18.4255,6.58606667 C18.4255,6.90973333 18.6878333,7.17206667 19.0115,7.17206667 C19.3348333,7.17206667 19.5975,6.90973333 19.5975,6.58606667 C19.5975,6.2194 19.7451667,5.8794 20.0135,5.62906667 C20.2815,5.37906667 20.6318333,5.25506667 21.0001667,5.2804 C21.6465,5.32506667 22.1671667,5.84606667 22.2118333,6.49206667 C22.2568333,7.14473333 21.8285,7.7214 21.1938333,7.8634 C20.6795,7.9784 20.3201667,8.4254 20.3201667,8.95006667 L20.3201667,10.3577333 C20.3201667,10.6814 20.5828333,10.9437333 20.9061667,10.9437333 C21.2298333,10.9437333 21.4921667,10.6814 21.4921667,10.3577333 L21.4921667,8.99706667 C22.6728333,8.71173333 23.4648333,7.6314 23.3808333,6.4114" id="Fill-7" fill="#000000"></path>
                <path d="M21.3205,12.2613333 C21.2115,12.1523333 21.0605,12.0896667 20.9061667,12.0896667 C20.7521667,12.0896667 20.6008333,12.1523333 20.4918333,12.2613333 C20.3828333,12.3703333 20.3201667,12.5213333 20.3201667,12.6756667 C20.3201667,12.8303333 20.3831667,12.9813333 20.4918333,13.0903333 C20.6008333,13.1993333 20.7521667,13.2616667 20.9061667,13.2616667 C21.0605,13.2616667 21.2115,13.1993333 21.3205,13.0903333 C21.4295,12.981 21.4921667,12.8303333 21.4921667,12.6756667 C21.4921667,12.5213333 21.4295,12.3703333 21.3205,12.2613333" id="Fill-9" fill="#000000"></path>
                <path d="M16.1132667,18.1640667 L3.74993333,18.1640667 C3.42626667,18.1640667 3.16393333,18.4264 3.16393333,18.7500667 C3.16393333,19.0737333 3.42626667,19.3360667 3.74993333,19.3360667 L16.1132667,19.3360667 C16.4369333,19.3360667 16.6992667,19.0737333 16.6992667,18.7500667 C16.6992667,18.4264 16.4369333,18.1640667 16.1132667,18.1640667" id="Fill-11" fill="#000000"></path>
                <path d="M16.5274667,21.617 C16.4184667,21.508 16.2674667,21.4453333 16.1131333,21.4453333 C15.9591333,21.4453333 15.8081333,21.508 15.6991333,21.617 C15.5898,21.726 15.5274667,21.877 15.5274667,22.0313333 C15.5274667,22.1853333 15.5901333,22.3366667 15.6991333,22.4456667 C15.8081333,22.5546667 15.9591333,22.6173333 16.1131333,22.6173333 C16.2674667,22.6173333 16.4184667,22.5546667 16.5274667,22.4456667 C16.6364667,22.3366667 16.6991333,22.186 16.6991333,22.0313333 C16.6991333,21.877 16.6364667,21.726 16.5274667,21.617" id="Fill-13" fill="#000000"></path>
                <path d="M13.8086,21.4453 L3.74993333,21.4453 C3.4266,21.4453 3.16393333,21.7076333 3.16393333,22.0313 C3.16393333,22.3549667 3.4266,22.6173 3.74993333,22.6173 L13.8086,22.6173 C14.1322667,22.6173 14.3946,22.3549667 14.3946,22.0313 C14.3946,21.7076333 14.1322667,21.4453 13.8086,21.4453" id="Fill-15" fill="#000000"></path>
                <path d="M12.3047,14.8828 L3.75003333,14.8828 C3.42636667,14.8828 3.16403333,15.1451333 3.16403333,15.4688 C3.16403333,15.7924667 3.42636667,16.0548 3.75003333,16.0548 L12.3047,16.0548 C12.6283667,16.0548 12.8907,15.7924667 12.8907,15.4688 C12.8907,15.1451333 12.6283667,14.8828 12.3047,14.8828" id="Fill-17" fill="#000000"></path>
            </g>
        </g>
    </g>
</svg>