<?xml version="1.0" encoding="utf-8"?>
<!-- Generator: Adobe Illustrator 19.2.1, SVG Export Plug-In . SVG Version: 6.00 Build 0)  -->
<svg version="1.2" baseProfile="tiny" id="Layer_1" xmlns="http://www.w3.org/2000/svg" xmlns:xlink="http://www.w3.org/1999/xlink"
	 x="0px" y="0px" viewBox="0 0 363 330.7" xml:space="preserve">
<g>
	<path fill="none" d="M319.8,18H181.9C167.8,18,156,29.2,156,43.3v69.8V197l18.1-16.4c0.8-0.8,1.8-1.5,2.5-2.1
		c8.3-7.6,10.4-8.8,21.2-8.6c1.5,0,3.2,0,5.4,0h116.7c14.1,0,25.2-11.4,25.2-25.4V43.3C345,29.2,333.8,18,319.8,18z M248.8,142.3
		c-5,0-8.8-4-8.8-9v-0.1c0-5,3.8-9,8.8-9s9,4,9,9S253.8,142.3,248.8,142.3z M263.9,100.5c-2.2,1.9-6.3,5.3-6.3,6.5
		c0,5-4,8.9-8.9,8.9h-0.1c-4.9,0-9-3.8-9-8.8c-0.1-9.7,7-15.6,12.8-20.4c4.5-3.8,7.4-6.4,7.4-8.8c0-4.9-4-8.9-8.9-8.9
		c-4.9,0-8.9,4-8.9,8.9c0,5-4,9-9,9s-9-4-9-9c0-14.8,12.1-26.9,26.9-26.9c14.8,0,26.9,12,26.9,26.9
		C277.7,88.9,269.7,95.6,263.9,100.5z"/>
	<path d="M319.8,0H181.9c-24,0-43.9,19.3-43.9,43.3V104H43.7C19.7,104,0,123.6,0,147.6v101.3c0,24,19.7,43.1,43.7,43.1h126.9
		l39.5,36.2c1.7,1.5,3.9,2.4,6.1,2.4c1.2,0,2.4-0.2,3.6-0.7c3.3-1.4,5.3-4.6,5.3-8.2V215.8c0-5-4-9-9-9s-9,4-9,9v85.5l-26.9-24.8
		c-1.7-1.5-3.8-2.5-6-2.5H43.7C29.7,274,18,262.9,18,248.9V147.6c0-14.1,11.7-25.6,25.7-25.6H138v95.4c0,3.6,2.3,6.8,5.6,8.2
		c3.3,1.4,7.2,0.8,9.8-1.6l33-30.1c0.9-0.8,1.7-1.5,2.4-2.2c1.8-1.6,3.6-3.3,4.4-3.8c0.7-0.1,2.6-0.1,4.2,0c1.6,0,3.5,0,5.7,0h116.7
		c24,0,43.2-19.5,43.2-43.4V43.3C363,19.3,343.8,0,319.8,0z M345,144.6c0,14.1-11.2,25.4-25.2,25.4H203.1c-2.1,0-3.9,0-5.4,0
		c-10.8-0.2-12.9,1-21.2,8.6c-0.7,0.6-1.6,1.3-2.5,2.1L156,197v-83.9V43.3c0-14.1,11.8-25.3,25.9-25.3h137.9
		c14.1,0,25.2,11.2,25.2,25.3V144.6z"/>
	<path d="M67.4,187c-5,0-9,4-9,9c0,5,4,9,9,9h0.8c5,0,9-4,9-9c0-5-4-9-9-9H67.4z"/>
	<path d="M248.8,124.3c-5,0-8.8,4-8.8,9v0.1c0,5,3.8,9,8.8,9c5,0,9-4.1,9-9S253.8,124.3,248.8,124.3z"/>
	<path d="M98.7,187c-5,0-9,4-9,9c0,5,4,9,9,9h0.7c5,0,9-4,9-9c0-5-4-9-9-9H98.7z"/>
	<path d="M250.8,51.1c-14.8,0-26.9,12.1-26.9,26.9c0,5,4,9,9,9s9-4,9-9c0-4.9,4-8.9,8.9-8.9c4.9,0,8.9,4,8.9,8.9
		c0,2.4-2.9,5.1-7.4,8.8c-5.7,4.8-12.8,10.6-12.8,20.4c0,4.9,4.1,8.8,9,8.8h0.1c5,0,9-4,8.9-8.9c0-1.3,4.1-4.7,6.3-6.5
		c5.8-4.9,13.9-11.6,13.9-22.6C277.7,63.1,265.7,51.1,250.8,51.1z"/>
</g>
</svg>
