<?xml version="1.0" encoding="UTF-8"?>
<svg width="125px" height="20px" viewBox="0 0 125 20" version="1.1" xmlns="http://www.w3.org/2000/svg" xmlns:xlink="http://www.w3.org/1999/xlink">
    <!-- Generator: Sketch 54.1 (76490) - https://sketchapp.com -->
    <title>Group 24</title>
    <desc>Created with Sketch.</desc>
    <g id="Page-1" stroke="none" stroke-width="1" fill="none" fill-rule="evenodd">
        <g id="Homepage" transform="translate(-1048.000000, -2179.000000)" fill="#B59035">
            <g id="Group-30-Copy-2" transform="translate(930.000000, 2009.000000)">
                <g id="Group-24" transform="translate(118.000000, 170.000000)">
                    <path d="M20.4225191,9.06366258 C20.8334208,8.66321114 20.9784695,8.0754922 20.8012342,7.52915604 C20.6235809,6.98281988 20.1608462,6.59281863 19.5923557,6.51005309 L14.5378057,5.77561343 C14.3225317,5.74426284 14.1365182,5.60924633 14.0403764,5.4140367 L11.7806264,0.834343519 C11.5268957,0.319775948 11.0119101,0 10.4379854,0 C9.86447874,0 9.34949316,0.319775948 9.09576244,0.834343519 L6.8355944,5.41445471 C6.73945261,5.60966434 6.55302114,5.74468085 6.33774714,5.77603143 L1.28319712,6.51047109 C0.715124557,6.59281863 0.251971943,6.98323789 0.0743186384,7.52957405 C-0.102916658,8.07591021 0.0421320397,8.66362914 0.453033683,9.06408059 L4.11018371,12.6288509 C4.26610061,12.7810057 4.33757994,13.0000418 4.30079525,13.2140618 L3.4380272,18.2477114 C3.36153178,18.6907996 3.47773794,19.1217657 3.76449128,19.461606 C4.21008756,19.9912218 4.98800003,20.1525728 5.6099956,19.8256908 L10.1303317,17.4488985 C10.3192712,17.3498307 10.5571176,17.3506667 10.7456391,17.4488985 L15.2663932,19.8256908 C15.4862653,19.9414789 15.7207677,20 15.9627942,20 C16.4046284,20 16.8234722,19.8035363 17.1114795,19.461606 C17.3986509,19.1217657 17.514439,18.6899636 17.4379436,18.2477114 L16.5747575,13.2140618 C16.5379729,12.9996238 16.6094522,12.7810057 16.7653691,12.6288509 L20.4225191,9.06366258 Z" id="Fill-1"></path>
                    <path d="M46.4225191,9.06366258 C46.8334208,8.66321114 46.9784695,8.0754922 46.8012342,7.52915604 C46.6235809,6.98281988 46.1608462,6.59281863 45.5923557,6.51005309 L40.5378057,5.77561343 C40.3225317,5.74426284 40.1365182,5.60924633 40.0403764,5.4140367 L37.7806264,0.834343519 C37.5268957,0.319775948 37.0119101,0 36.4379854,0 C35.8644787,0 35.3494932,0.319775948 35.0957624,0.834343519 L32.8355944,5.41445471 C32.7394526,5.60966434 32.5530211,5.74468085 32.3377471,5.77603143 L27.2831971,6.51047109 C26.7151246,6.59281863 26.2519719,6.98323789 26.0743186,7.52957405 C25.8970833,8.07591021 26.042132,8.66362914 26.4530337,9.06408059 L30.1101837,12.6288509 C30.2661006,12.7810057 30.3375799,13.0000418 30.3007953,13.2140618 L29.4380272,18.2477114 C29.3615318,18.6907996 29.4777379,19.1217657 29.7644913,19.461606 C30.2100876,19.9912218 30.988,20.1525728 31.6099956,19.8256908 L36.1303317,17.4488985 C36.3192712,17.3498307 36.5571176,17.3506667 36.7456391,17.4488985 L41.2663932,19.8256908 C41.4862653,19.9414789 41.7207677,20 41.9627942,20 C42.4046284,20 42.8234722,19.8035363 43.1114795,19.461606 C43.3986509,19.1217657 43.514439,18.6899636 43.4379436,18.2477114 L42.5747575,13.2140618 C42.5379729,12.9996238 42.6094522,12.7810057 42.7653691,12.6288509 L46.4225191,9.06366258 Z" id="Fill-1-Copy"></path>
                    <path d="M72.4225191,9.06366258 C72.8334208,8.66321114 72.9784695,8.0754922 72.8012342,7.52915604 C72.6235809,6.98281988 72.1608462,6.59281863 71.5923557,6.51005309 L66.5378057,5.77561343 C66.3225317,5.74426284 66.1365182,5.60924633 66.0403764,5.4140367 L63.7806264,0.834343519 C63.5268957,0.319775948 63.0119101,0 62.4379854,0 C61.8644787,0 61.3494932,0.319775948 61.0957624,0.834343519 L58.8355944,5.41445471 C58.7394526,5.60966434 58.5530211,5.74468085 58.3377471,5.77603143 L53.2831971,6.51047109 C52.7151246,6.59281863 52.2519719,6.98323789 52.0743186,7.52957405 C51.8970833,8.07591021 52.042132,8.66362914 52.4530337,9.06408059 L56.1101837,12.6288509 C56.2661006,12.7810057 56.3375799,13.0000418 56.3007953,13.2140618 L55.4380272,18.2477114 C55.3615318,18.6907996 55.4777379,19.1217657 55.7644913,19.461606 C56.2100876,19.9912218 56.988,20.1525728 57.6099956,19.8256908 L62.1303317,17.4488985 C62.3192712,17.3498307 62.5571176,17.3506667 62.7456391,17.4488985 L67.2663932,19.8256908 C67.4862653,19.9414789 67.7207677,20 67.9627942,20 C68.4046284,20 68.8234722,19.8035363 69.1114795,19.461606 C69.3986509,19.1217657 69.514439,18.6899636 69.4379436,18.2477114 L68.5747575,13.2140618 C68.5379729,12.9996238 68.6094522,12.7810057 68.7653691,12.6288509 L72.4225191,9.06366258 Z" id="Fill-1-Copy-2"></path>
                    <path d="M98.4225191,9.06366258 C98.8334208,8.66321114 98.9784695,8.0754922 98.8012342,7.52915604 C98.6235809,6.98281988 98.1608462,6.59281863 97.5923557,6.51005309 L92.5378057,5.77561343 C92.3225317,5.74426284 92.1365182,5.60924633 92.0403764,5.4140367 L89.7806264,0.834343519 C89.5268957,0.319775948 89.0119101,0 88.4379854,0 C87.8644787,0 87.3494932,0.319775948 87.0957624,0.834343519 L84.8355944,5.41445471 C84.7394526,5.60966434 84.5530211,5.74468085 84.3377471,5.77603143 L79.2831971,6.51047109 C78.7151246,6.59281863 78.2519719,6.98323789 78.0743186,7.52957405 C77.8970833,8.07591021 78.042132,8.66362914 78.4530337,9.06408059 L82.1101837,12.6288509 C82.2661006,12.7810057 82.3375799,13.0000418 82.3007953,13.2140618 L81.4380272,18.2477114 C81.3615318,18.6907996 81.4777379,19.1217657 81.7644913,19.461606 C82.2100876,19.9912218 82.988,20.1525728 83.6099956,19.8256908 L88.1303317,17.4488985 C88.3192712,17.3498307 88.5571176,17.3506667 88.7456391,17.4488985 L93.2663932,19.8256908 C93.4862653,19.9414789 93.7207677,20 93.9627942,20 C94.4046284,20 94.8234722,19.8035363 95.1114795,19.461606 C95.3986509,19.1217657 95.514439,18.6899636 95.4379436,18.2477114 L94.5747575,13.2140618 C94.5379729,12.9996238 94.6094522,12.7810057 94.7653691,12.6288509 L98.4225191,9.06366258 Z" id="Fill-1-Copy-3"></path>
                    <path d="M124.422519,9.06366258 C124.833421,8.66321114 124.978469,8.0754922 124.801234,7.52915604 C124.623581,6.98281988 124.160846,6.59281863 123.592356,6.51005309 L118.537806,5.77561343 C118.322532,5.74426284 118.136518,5.60924633 118.040376,5.4140367 L115.780626,0.834343519 C115.526896,0.319775948 115.01191,0 114.437985,0 C113.864479,0 113.349493,0.319775948 113.095762,0.834343519 L110.835594,5.41445471 C110.739453,5.60966434 110.553021,5.74468085 110.337747,5.77603143 L105.283197,6.51047109 C104.715125,6.59281863 104.251972,6.98323789 104.074319,7.52957405 C103.897083,8.07591021 104.042132,8.66362914 104.453034,9.06408059 L108.110184,12.6288509 C108.266101,12.7810057 108.33758,13.0000418 108.300795,13.2140618 L107.438027,18.2477114 C107.361532,18.6907996 107.477738,19.1217657 107.764491,19.461606 C108.210088,19.9912218 108.988,20.1525728 109.609996,19.8256908 L114.130332,17.4488985 C114.319271,17.3498307 114.557118,17.3506667 114.745639,17.4488985 L119.266393,19.8256908 C119.486265,19.9414789 119.720768,20 119.962794,20 C120.404628,20 120.823472,19.8035363 121.11148,19.461606 C121.398651,19.1217657 121.514439,18.6899636 121.437944,18.2477114 L120.574758,13.2140618 C120.537973,12.9996238 120.609452,12.7810057 120.765369,12.6288509 L124.422519,9.06366258 Z" id="Fill-1-Copy-4"></path>
                </g>
            </g>
        </g>
    </g>
</svg>