<?xml version="1.0" encoding="UTF-8"?>
<svg width="19px" height="25px" viewBox="0 0 19 25" version="1.1" xmlns="http://www.w3.org/2000/svg" xmlns:xlink="http://www.w3.org/1999/xlink">
    <!-- Generator: Sketch 54.1 (76490) - https://sketchapp.com -->
    <title>flag</title>
    <desc>Created with Sketch.</desc>
    <g id="Page-1" stroke="none" stroke-width="1" fill="none" fill-rule="evenodd">
        <g id="Resort-form-Copy" transform="translate(-877.000000, -106.000000)" fill="#B59035">
            <g id="Group" transform="translate(151.000000, 49.000000)">
                <g id="flag" transform="translate(666.000000, 57.000000)">
                    <g id="Group-3">
                        <path d="M61.5625,2.95585938 L61.5625,15.8328125 L76.5859375,9.93085938 L61.5625,2.95585938 Z M61.171875,25 C60.5257813,25 60,24.4742188 60,23.828125 L60,1.171875 C60,0.52578125 60.5257813,0 61.171875,0 C61.8183594,0 62.34375,0.52578125 62.34375,1.171875 L62.34375,1.59609375 L78.0730469,8.8984375 C78.4980469,9.096875 78.7632813,9.52734375 78.7496094,9.99570313 C78.7359375,10.4660156 78.4441406,10.8804688 78.0058594,11.0519531 L62.34375,17.2046875 L62.34375,23.828125 C62.34375,24.4742188 61.8183594,25 61.171875,25 L61.171875,25 Z" id="Fill-1"></path>
                    </g>
                </g>
            </g>
        </g>
    </g>
</svg>