<?xml version="1.0" encoding="UTF-8"?>
<svg width="25px" height="25px" viewBox="0 0 25 25" version="1.1" xmlns="http://www.w3.org/2000/svg" xmlns:xlink="http://www.w3.org/1999/xlink">
    <!-- Generator: Sketch 54.1 (76490) - https://sketchapp.com -->
    <title>user</title>
    <desc>Created with Sketch.</desc>
    <g id="Page-1" stroke="none" stroke-width="1" fill="none" fill-rule="evenodd">
        <g id="Resort-form" transform="translate(-909.000000, -183.000000)" fill="#B59035" fill-rule="nonzero">
            <g id="Group" transform="translate(150.000000, 128.000000)">
                <g id="Group-3-Copy">
                    <g id="Group-5" transform="translate(759.000000, 52.000000)">
                        <g id="user" transform="translate(0.000000, 3.000000)">
                            <path d="M21.3388672,16.1611328 C19.9773926,14.799707 18.3568848,13.7918457 16.5888184,13.1817383 C18.4824707,11.8774902 19.7265625,9.69472656 19.7265625,7.2265625 C19.7265625,3.2418457 16.4847168,0 12.5,0 C8.5152832,0 5.2734375,3.2418457 5.2734375,7.2265625 C5.2734375,9.69472656 6.5175293,11.8774902 8.41123047,13.1817383 C6.64316406,13.7918457 5.02265625,14.799707 3.66118164,16.1611328 C1.30024414,18.5221191 0,21.6611328 0,25 L1.953125,25 C1.953125,19.1844238 6.68442383,14.453125 12.5,14.453125 C18.3155762,14.453125 23.046875,19.1844238 23.046875,25 L25,25 C25,21.6611328 23.6997559,18.5221191 21.3388672,16.1611328 Z M12.5,12.5 C9.59223633,12.5 7.2265625,10.134375 7.2265625,7.2265625 C7.2265625,4.31875 9.59223633,1.953125 12.5,1.953125 C15.4077637,1.953125 17.7734375,4.31875 17.7734375,7.2265625 C17.7734375,10.134375 15.4077637,12.5 12.5,12.5 Z" id="Shape"></path>
                        </g>
                    </g>
                </g>
            </g>
        </g>
    </g>
</svg>