<?xml version="1.0" encoding="UTF-8"?>
<svg width="48px" height="48px" viewBox="0 0 48 48" version="1.1" xmlns="http://www.w3.org/2000/svg" xmlns:xlink="http://www.w3.org/1999/xlink">
    <!-- Generator: Sketch 54.1 (76490) - https://sketchapp.com -->
    <title>Group 22</title>
    <desc>Created with Sketch.</desc>
    <defs>
        <polygon id="path-1" points="0 0.000213333333 48 0.000213333333 48 48 0 48"></polygon>
    </defs>
    <g id="02.PRODUCT" stroke="none" stroke-width="1" fill="none" fill-rule="evenodd">
        <g id="Product-Ver-4" transform="translate(-275.000000, -615.000000)">
            <g id="Group-22" transform="translate(275.000000, 615.000000)">
                <g id="Group-8">
                    <g id="Group-3">
                        <mask id="mask-2" fill="white">
                            <use xlink:href="#path-1"></use>
                        </mask>
                        <g id="Clip-2"></g>
                        <path d="M47.9381333,22.8519467 C47.9338667,22.68768 47.9098667,22.5298133 47.8901333,22.4258133 C47.3002667,18.6722133 44.4421333,18.2098133 41.68,17.7639467 C39.1642667,17.35808 36.312,16.8983467 33.7098667,14.29408 C31.1002667,11.6839467 30.64,8.83168 30.232,6.31594667 C29.7861333,3.56394667 29.3264,0.715946667 25.5621333,0.107946667 C25.4101333,0.0818133333 25.2661333,0.0599466667 25.1941333,0.0679466667 C24.7941333,0.02208 24.3957333,0.000213333333 24,0.000213333333 C10.7658667,0.000213333333 0,10.76608 0,24.0002133 C0,37.2343467 10.7658667,48.0002133 24,48.0002133 C37.2341333,48.0002133 48,37.2343467 48,24.0002133 C48,23.59808 47.9797333,23.21408 47.9381333,22.8519467" id="Fill-1" fill="#6C6C6C" mask="url(#mask-2)"></path>
                    </g>
                    <path d="M43.2659733,18.6119467 C43.2195733,18.44608 43.1321067,18.29568 43.0099733,18.17408 L29.82224,4.99008 C29.7001067,4.86794667 29.5481067,4.77994667 29.3817067,4.73408 C27.6361067,4.24821333 25.8259733,4.00021333 23.99984,4.00021333 C12.9721067,4.00021333 3.99984,12.9719467 3.99984,24.0002133 C3.99984,35.0279467 12.9721067,43.99968 23.99984,43.99968 C35.0281067,43.99968 43.99984,35.0279467 43.99984,24.0002133 C43.99984,22.16768 43.7539733,20.3559467 43.2659733,18.6119467" id="Fill-4" fill="#6C6C6C"></path>
                    <path d="M40.5941333,11.1181867 C39.9621333,10.5160533 39.3258667,9.91178667 38.7082667,9.29205333 C38.0922667,8.67605333 37.4917333,8.04405333 36.8938667,7.41792 C33.7482667,4.11605333 30.4938667,0.702186667 25.56,0.10592 C27.768,0.462186667 27.7882667,3.73792 28.256,6.63392 C28.6901333,9.31018667 29.2282667,12.64192 32.296,15.7080533 C35.3557333,18.7677867 38.6864,19.30592 41.3621333,19.73792 C44.2661333,20.2061867 47.5482667,20.2381867 47.8976,22.46432 C47.3141333,17.5181867 43.8981333,14.2637867 40.5941333,11.1181867" id="Fill-6" fill="#C1C1C1"></path>
                </g>
                <text id="NEW" font-family="AvenirNext-Medium, Avenir Next" font-size="14" font-weight="400" fill="#FFFFFF">
                    <tspan x="7" y="29">NEW</tspan>
                </text>
            </g>
        </g>
    </g>
</svg>