<?xml version="1.0" encoding="UTF-8"?>
<svg width="32px" height="12px" viewBox="0 0 32 12" version="1.1" xmlns="http://www.w3.org/2000/svg" xmlns:xlink="http://www.w3.org/1999/xlink">
    <!-- Generator: Sketch 54.1 (76490) - https://sketchapp.com -->
    <title>Group 13</title>
    <desc>Created with Sketch.</desc>
    <g id="02.PRODUCT" stroke="none" stroke-width="1" fill="none" fill-rule="evenodd">
        <g id="Product-Ver-4" transform="translate(-1168.000000, -504.000000)" fill="#000000" fill-rule="nonzero">
            <g id="Group" transform="translate(1158.000000, 500.000000)">
                <g id="Group-10">
                    <g id="Group-13" transform="translate(10.000000, 4.000000)">
                        <g id="sort-button-with-three-lines" transform="translate(16.000000, 1.000000)">
                            <path d="M-2.0783375e-13,10 L5.15151515,10 L5.15151515,8.33333333 L-2.0783375e-13,8.33333333 L-2.0783375e-13,10 Z M-2.0783375e-13,0 L-2.0783375e-13,1.66666667 L15.4545455,1.66666667 L15.4545455,0 L-2.0783375e-13,0 Z M-2.0783375e-13,5.83333333 L10.3030303,5.83333333 L10.3030303,4.16666667 L-2.0783375e-13,4.16666667 L-2.0783375e-13,5.83333333 Z" id="Shape"></path>
                        </g>
                        <g id="sort">
                            <path d="M9.06885246,11.6877842 C9.06885246,11.8603913 9.20409836,12 9.37131148,12 C9.53852459,12 9.67377049,11.8603913 9.67377049,11.6877842 L9.67377049,1.0572184 L11.4836066,2.92543628 C11.542623,2.98635643 11.6188525,3.0168165 11.697541,3.0168165 C11.7762295,3.0168165 11.852459,2.98635643 11.9114754,2.92543628 C12.0295082,2.80359598 12.0295082,2.60814384 11.9114754,2.48630354 L9.58770492,0.0875727129 C9.47459016,-0.0291909043 9.27540984,-0.0291909043 9.16229508,0.0875727129 L6.83852459,2.48630354 C6.7204918,2.60814384 6.7204918,2.80359598 6.83852459,2.92543628 C6.95655738,3.04727657 7.14590164,3.04727657 7.26393443,2.92543628 L9.07377049,1.0572184 L9.07377049,11.6877842 L9.06885246,11.6877842 Z" id="Path"></path>
                            <path d="M5.16298438,9.07168535 C5.04491709,8.9498837 4.85551747,8.9498837 4.73745018,9.07168535 L2.927085,10.9393106 L2.927085,0.312116727 C2.927085,0.13956439 2.79179956,0 2.62453756,0 C2.45727556,0 2.32199012,0.13956439 2.32199012,0.312116727 L2.32199012,10.9393106 L0.514084677,9.07168535 C0.396017383,8.9498837 0.206617765,8.9498837 0.0885504706,9.07168535 C-0.0295168235,9.193487 -0.0295168235,9.38887714 0.0885504706,9.51067879 L2.41300032,11.9086488 C2.47203397,11.9695496 2.54828577,12 2.6269973,12 C2.70570882,12 2.78196062,11.9695496 2.84099427,11.9086488 L5.16544412,9.51067879 C5.27859194,9.39141468 5.27859194,9.193487 5.16298438,9.07168535 Z" id="Path"></path>
                        </g>
                    </g>
                </g>
            </g>
        </g>
    </g>
</svg>