<?xml version="1.0" encoding="UTF-8"?>
<svg width="22px" height="22px" viewBox="0 0 22 22" version="1.1" xmlns="http://www.w3.org/2000/svg" xmlns:xlink="http://www.w3.org/1999/xlink">
    <!-- Generator: Sketch 54.1 (76490) - https://sketchapp.com -->
    <title>plus</title>
    <desc>Created with Sketch.</desc>
    <g id="02.PRODUCT" stroke="none" stroke-width="1" fill="none" fill-rule="evenodd">
        <g id="Product-detail-1" transform="translate(-1014.000000, -479.000000)" fill="#000000" fill-rule="nonzero">
            <g id="Group-19" transform="translate(0.000000, -30.000000)">
                <g id="Group-18" transform="translate(961.000000, 478.000000)">
                    <g id="Group-5" transform="translate(0.000000, 31.000000)">
                        <g id="plus" transform="translate(53.000000, 0.000000)">
                            <path d="M18.7821297,18.6352971 C23.0726234,14.4257561 23.0726234,7.57424386 18.7821297,3.36470289 C14.4916361,-0.844838071 7.50836393,-0.844838071 3.21787026,3.36470289 C-1.07262342,7.57424386 -1.07262342,14.4257561 3.21787026,18.6352971 C7.50836393,22.8448381 14.4916361,22.8448381 18.7821297,18.6352971 Z M3.99428805,4.12647129 C7.85842513,0.33524245 14.1415749,0.33524245 18.005712,4.12647129 C21.869849,7.91770013 21.869849,14.0822999 18.005712,17.8735287 C14.1415749,21.6647575 7.85842513,21.6647575 3.99428805,17.8735287 C0.130150959,14.0822999 0.134638923,7.91770013 3.99428805,4.12647129 Z" id="Shape"></path>
                            <path d="M10.9910921,15.1509434 C11.1430358,15.1509434 11.2771037,15.0908049 11.3798891,14.9963015 C11.4782056,14.9017982 11.5407706,14.7686344 11.5407706,14.6225837 L11.5407706,11.7316401 L14.5483608,11.7316401 C14.7003044,11.7316401 14.8343723,11.6715016 14.9371577,11.5769982 C15.0354742,11.4824949 15.0980392,11.349331 15.0980392,11.2032804 C15.0980392,10.9111791 14.852248,10.6749207 14.5528297,10.6792163 L11.5452395,10.6792163 L11.5452395,7.78827268 C11.5452395,7.49617139 11.2994483,7.259913 11.00003,7.26420861 C10.6961427,7.26420861 10.4503515,7.500467 10.4548205,7.78827268 L10.4548205,10.6792163 L7.44723029,10.6792163 C7.14334302,10.6792163 6.89755184,10.9154747 6.90202077,11.2032804 C6.90202077,11.4953817 7.14781195,11.7316401 7.44723029,11.7273445 L10.4548205,11.7273445 L10.4548205,14.6182881 C10.4414137,14.914685 10.6872049,15.1509434 10.9910921,15.1509434 Z" id="Path"></path>
                        </g>
                    </g>
                </g>
            </g>
        </g>
    </g>
</svg>